<svg width="54" height="54" viewBox="0 0 54 54" fill="none" xmlns="http://www.w3.org/2000/svg">
<mask id="mask0_697_721" style="mask-type:alpha" maskUnits="userSpaceOnUse" x="0" y="0" width="54" height="54">
<rect width="54" height="54" fill="#D9D9D9"/>
</mask>
<g mask="url(#mask0_697_721)">
</g>
<path fill-rule="evenodd" clip-rule="evenodd" d="M9.61297 22.3412C7.04002 31.9436 12.7385 41.8136 22.3409 44.3866C31.9433 46.9595 41.8133 41.261 44.3863 31.6587C46.9593 22.0563 41.2608 12.1862 31.6584 9.61325C22.056 7.0403 12.1859 12.7388 9.61297 22.3412ZM32.4348 6.71547C21.232 3.7137 9.71697 10.3619 6.71519 21.5647C3.71341 32.7675 10.3616 44.2826 21.5644 47.2844C32.7672 50.2861 44.2823 43.6379 47.2841 32.4351C50.2859 21.2323 43.6376 9.71725 32.4348 6.71547Z" fill="white"/>
<path fill-rule="evenodd" clip-rule="evenodd" d="M24.3647 26.2939C23.9748 27.7488 24.8382 29.2443 26.2931 29.6341C27.7481 30.024 29.2435 29.1606 29.6334 27.7057C30.0232 26.2508 29.1598 24.7553 27.7049 24.3655C26.25 23.9756 24.7545 24.839 24.3647 26.2939ZM28.4813 21.4677C25.426 20.649 22.2856 22.4622 21.4669 25.5175C20.6482 28.5728 22.4614 31.7133 25.5167 32.5319C28.572 33.3506 31.7125 31.5374 32.5311 28.4821C33.3498 25.4268 31.5366 22.2863 28.4813 21.4677Z" fill="white"/>
<path fill-rule="evenodd" clip-rule="evenodd" d="M20.2016 38.5903C19.578 38.4232 18.9174 38.6739 18.5616 39.2127L16.4266 42.4463L13.9231 40.7933L16.0581 37.5598C17.1253 35.9434 19.1071 35.1912 20.9781 35.6926L27.8651 37.5379C29.7361 38.0393 31.0763 39.6815 31.1923 41.615L31.4245 45.4828L28.4299 45.6626L28.1977 41.7947C28.1591 41.1502 27.7123 40.6028 27.0887 40.4357L20.2016 38.5903Z" fill="white"/>
<path fill-rule="evenodd" clip-rule="evenodd" d="M33.7974 15.4097C34.4211 15.5768 35.0817 15.3261 35.4374 14.7873L37.5724 11.5537L40.0759 13.2067L37.9409 16.4402C36.8737 18.0566 34.8919 18.8088 33.0209 18.3074L26.1339 16.4621C24.263 15.9607 22.9227 14.3185 22.8067 12.385L22.5745 8.51718L25.5691 8.33743L25.8013 12.2053C25.84 12.8498 26.2867 13.3972 26.9104 13.5643L33.7974 15.4097Z" fill="white"/>
</svg>
