<svg width="54" height="54" viewBox="0 0 54 54" fill="none" xmlns="http://www.w3.org/2000/svg">
<g clip-path="url(#clip0_697_1268)">
<path fill-rule="evenodd" clip-rule="evenodd" d="M20.5069 11.1337C26.9807 12.8837 31.0428 19.383 29.6217 25.9905C29.4475 26.8004 28.6498 27.3158 27.8399 27.1416L18.4433 25.1207L16.6541 43.5011L25.9533 43.5011L27.051 40.5012L25.6998 40.5012C25.2386 40.5012 24.8031 40.2891 24.5188 39.926L19.8204 33.926C19.3096 33.2738 19.4243 32.331 20.0765 31.8202C20.7288 31.3095 21.6716 31.4242 22.1823 32.0764L26.4303 37.5012L28.1487 37.5012L29.9839 32.4857C30.2003 31.8944 30.7629 31.5011 31.3926 31.5011L40.6381 31.5011C41.2688 31.5011 41.8322 31.8957 42.0477 32.4885L43.8705 37.5012L48.0013 37.5012C48.8298 37.5012 49.5013 38.1728 49.5013 39.0012C49.5013 39.8296 48.8298 40.5012 48.0013 40.5012L44.9614 40.5012L46.0523 43.5011L48.0013 43.5011C48.8297 43.5012 49.5013 44.1727 49.5013 45.0011C49.5013 45.8296 48.8297 46.5011 48.0013 46.5011L45.0365 46.5012C45.0241 46.5014 45.0117 46.5016 44.9994 46.5016C44.9886 46.5015 44.9779 46.5014 44.9671 46.5011L27.0363 46.5011C27.0132 46.5017 26.99 46.5017 26.9668 46.5011L9.00128 46.5011C8.17285 46.5011 7.50128 45.8296 7.50128 45.0011C7.50128 44.1727 8.17285 43.5011 9.00128 43.5011L13.6399 43.5011L15.4909 24.4857L5.91562 22.4264C5.10571 22.2522 4.59036 21.4545 4.76454 20.6446C6.20833 13.9314 12.7657 9.64683 19.4993 10.9039C19.6487 10.8997 19.7985 10.9176 19.9435 10.9577C20.1418 10.9787 20.3334 11.039 20.5069 11.1337ZM17.5048 21.8503C17.4562 21.8372 17.4064 21.8265 17.3558 21.8182L13.7857 21.0504C14.809 17.9972 16.8464 15.6335 19.2506 14.3447C20.9199 16.5078 21.7991 19.5056 21.4781 22.7048L17.5048 21.8503ZM26.8895 23.8686L24.4258 23.3387C24.7321 20.8075 24.429 18.323 23.6078 16.1092C25.795 18.0291 27.0549 20.8755 26.8895 23.8686ZM10.838 20.4165L8.12754 19.8335C9.26119 16.8976 11.7604 14.7549 14.729 13.9912C12.9907 15.6934 11.6268 17.8931 10.838 20.4165ZM30.2455 40.5012L29.1478 43.5011L42.8601 43.5011L41.7693 40.5012L30.2455 40.5012ZM40.6783 37.5012L31.3432 37.5012L32.441 34.5011L39.5874 34.5011L40.6783 37.5012Z" fill="white"/>
</g>
<defs>
<clipPath id="clip0_697_1268">
<rect width="54" height="54" fill="white"/>
</clipPath>
</defs>
</svg>
