<svg width="54" height="54" viewBox="0 0 54 54" fill="none" xmlns="http://www.w3.org/2000/svg">
<mask id="mask0_697_1005" style="mask-type:alpha" maskUnits="userSpaceOnUse" x="0" y="0" width="54" height="54">
<rect width="54" height="54" fill="#D9D9D9"/>
</mask>
<g mask="url(#mask0_697_1005)">
</g>
<path fill-rule="evenodd" clip-rule="evenodd" d="M12 27V27.8027C12.8825 27.2922 13.9071 27 15 27C18.3137 27 21 29.6863 21 33V39C21 42.3137 18.3137 45 15 45C11.6863 45 9 42.3137 9 39L9 36L9 33L9 32.998L9 27C9 17.0589 17.0589 9 27 9C36.9411 9 45 17.0589 45 27V33V36V39C45 42.3137 42.3137 45 39 45C35.6863 45 33 42.3137 33 39V33C33 29.6863 35.6863 27 39 27C40.0929 27 41.1175 27.2922 42 27.8027V27C42 18.7157 35.2843 12 27 12C18.7157 12 12 18.7157 12 27ZM42 33C42 31.3431 40.6569 30 39 30C37.3431 30 36 31.3431 36 33V39C36 40.6569 37.3431 42 39 42C40.6569 42 42 40.6569 42 39V36V33ZM12 36V33C12 31.3431 13.3431 30 15 30C16.6569 30 18 31.3431 18 33V39C18 40.6569 16.6569 42 15 42C13.3431 42 12 40.6569 12 39V36Z" fill="white"/>
</svg>
